# xmcd
#
# Track frame offsets: 
#        150
#        14140
#        28558
#        42635
#        55748
#        68310
#        79052
#        92347
#        106065
#        118488
#        129323
#        140640
#        154213
#        166160
#        180965
#        195232
#        208650
#        219842
#        234892
#
# Disc length: 3332 seconds
#
# Revision: 2
# Processed by: cddbd v1.5.2PL0 Copyright (c) Steve Scherf et al.
# Submitted via: ExactAudioCopyFreeDBPlugin 1.0
#
DISCID=f20d0213
DTITLE=Frank Sinatra - Nelson Riddle and Orchestra - Sinatra the Voice 33
DTITLE=Various Artist - Capitol Singles 1953-60 - Three Coins in the Fountain
DYEAR=1900
DGENRE=Jazz
TTITLE0=01 Three Coins in the Fountain
TTITLE1=02 The Gal that Got Away
TTITLE2=03 Half as Lovely (Twice as True)
TTITLE3=04 It Worries Me
TTITLE4=05 Not As A Stranger
TTITLE5=06 From The Bottom To The Top
TTITLE6=07 If I Had Three Wishes
TTITLE7=08 Learnin' The Blues
TTITLE8=09 How Could You Do A Thing Like That To Me
TTITLE9=10 Two Hearts, Two Kisses (Make One Love)
TTITLE10=11 Same Old Saturday Night
TTITLE11=12 Fairy Tale
TTITLE12=13 Love And Marriage
TTITLE13=14 The Impatient Years
TTITLE14=15 Look To Your Heart
TTITLE15=16 (Love Is) The Tender Trap
TTITLE16=17 You'll Get Yours
TTITLE17=18 Weep They Will
TTITLE18=19 You Forgot All The Words
EXTD=
EXTT0=1954
EXTT1=1954
EXTT2=1954
EXTT3=1954
EXTT4=1955
EXTT5=1955
EXTT6=1955
EXTT7=1955
EXTT8=1955
EXTT9=1955
EXTT10=1955
EXTT11=1955
EXTT12=1955
EXTT13=1955
EXTT14=1955
EXTT15=1955
EXTT16=1955
EXTT17=1955
EXTT18=1955
PLAYORDER=
